<svg version="1.1" id="Layer_1" xmlns="http://www.w3.org/2000/svg" xmlns:xlink="http://www.w3.org/1999/xlink" x="0px" y="0px"
	 width="100%" viewBox="0 0 500 500" enable-background="new 0 0 500 500" xml:space="preserve">
<path fill="#000000" opacity="1.000000" stroke="none" 
	d="
M276.000000,501.000000 
	C184.000015,501.000000 92.500046,501.000000 1.000049,501.000000 
	C1.000033,334.333405 1.000033,167.666794 1.000016,1.000139 
	C167.666565,1.000092 334.333130,1.000092 500.999756,1.000046 
	C500.999847,167.666519 500.999847,334.333038 500.999939,500.999786 
	C426.166656,501.000000 351.333344,501.000000 276.000000,501.000000 
M289.956970,229.043106 
	C289.956970,229.043106 289.867065,229.043442 290.014801,229.587082 
	C290.328766,229.769058 290.642700,229.951035 290.956970,230.043121 
	C290.956970,230.043121 290.867065,230.043442 291.014801,230.587082 
	C291.328766,230.769058 291.642700,230.951035 291.956970,231.043121 
	C291.956970,231.043121 291.867065,231.043442 292.014801,231.587097 
	C292.328766,231.769073 292.642731,231.951050 292.954773,232.055695 
	C292.954773,232.055695 292.877472,232.058350 293.130493,232.715591 
	C293.765442,232.960663 294.400421,233.205734 295.069153,233.455063 
	C295.069153,233.455063 295.060883,233.421875 295.012665,234.154160 
	C295.321655,234.480988 295.630646,234.807816 295.942108,235.046890 
	C295.942108,235.046890 295.854309,235.045135 296.020935,235.581848 
	C296.332245,235.769836 296.643585,235.957809 296.955200,236.044968 
	C296.955200,236.044968 296.854370,236.045288 297.020966,236.581909 
	C297.332275,236.769867 297.643555,236.957809 297.955139,237.044998 
	C297.955139,237.044998 297.854401,237.045349 298.020996,237.581955 
	C298.332275,237.769897 298.643585,237.957825 298.955139,238.045013 
	C298.955139,238.045013 298.854401,238.045364 299.021027,238.581985 
	C299.332306,238.769897 299.643585,238.957825 299.955139,239.044998 
	C299.955139,239.044998 299.854401,239.045364 300.021027,239.581985 
	C300.332306,239.769913 300.643585,239.957825 300.955139,240.044998 
	C300.955139,240.044998 300.854401,240.045364 301.021027,240.581985 
	C301.332306,240.769913 301.643585,240.957825 301.955139,241.044998 
	C301.955139,241.044998 301.854401,241.045364 302.021027,241.581970 
	C302.332306,241.769897 302.643585,241.957825 302.955139,242.044998 
	C302.955139,242.044998 302.854401,242.045364 303.021027,242.581985 
	C303.332306,242.769897 303.643585,242.957825 303.955139,243.044998 
	C303.955139,243.044998 303.854401,243.045364 304.021027,243.582001 
	C304.332306,243.769913 304.643585,243.957840 304.955139,244.044998 
	C304.955139,244.044998 304.854401,244.045364 305.021027,244.581985 
	C305.332306,244.769913 305.643585,244.957825 305.955139,245.044998 
	C305.955139,245.044998 305.854401,245.045364 306.021027,245.581985 
	C306.332306,245.769913 306.643585,245.957840 306.955139,246.044998 
	C306.955139,246.044998 306.854401,246.045364 307.021027,246.581985 
	C307.332306,246.769913 307.643585,246.957840 307.955139,247.044998 
	C307.955139,247.044998 307.854401,247.045364 308.021027,247.581985 
	C308.332306,247.769897 308.643585,247.957825 308.955139,248.044998 
	C308.955139,248.044998 308.854401,248.045364 309.021027,248.581985 
	C309.332306,248.769913 309.643585,248.957825 309.955139,249.044998 
	C309.955139,249.044998 309.854401,249.045364 310.021027,249.581985 
	C310.332306,249.769913 310.643585,249.957840 310.955139,250.044998 
	C310.955139,250.044998 310.854401,250.045364 311.021027,250.581985 
	C311.332306,250.769897 311.643585,250.957825 311.955139,251.044998 
	C311.955139,251.044998 311.854401,251.045364 312.021027,251.581985 
	C312.332306,251.769897 312.643585,251.957825 312.955139,252.044998 
	C312.955139,252.044998 312.854401,252.045364 313.021027,252.581985 
	C313.332306,252.769913 313.643585,252.957825 313.955139,253.045013 
	C313.955139,253.045013 313.854401,253.045380 314.021027,253.581985 
	C314.332306,253.769913 314.643585,253.957840 314.955139,254.044998 
	C314.955139,254.044998 314.854401,254.045364 315.021027,254.581970 
	C315.332336,254.769897 315.643616,254.957825 315.955200,255.044937 
	C315.955200,255.044937 315.854401,255.045303 316.021149,255.581879 
	C316.332458,255.769836 316.643768,255.957794 316.955322,256.044800 
	C316.955322,256.044800 316.854370,256.045166 317.021393,256.581665 
	C317.332703,256.769684 317.644012,256.957703 317.955444,257.045074 
	C317.955444,257.045074 317.854797,257.045593 318.023590,257.583954 
	C318.336823,257.772156 318.650085,257.960358 318.967346,258.020844 
	C318.967346,258.020844 318.839630,258.017242 319.074982,258.647980 
	C319.427979,258.926910 319.780945,259.205811 320.382080,259.969757 
	C321.446655,260.944092 322.511261,261.918396 324.046509,263.366211 
	C324.702972,263.941040 325.359406,264.515839 326.178711,265.062164 
	C326.178711,265.062164 326.152008,264.899017 326.118439,265.358795 
	C326.245911,265.690887 326.487213,265.872009 327.096436,266.609161 
	C328.502228,268.078033 329.908051,269.546906 331.280975,270.827576 
	C331.280975,270.827576 331.351044,271.037079 331.351044,271.037079 
	C331.351044,271.037079 331.050415,271.122528 332.012360,270.432434 
	C332.268036,270.131836 332.523712,269.831268 332.768066,269.618011 
	C332.768066,269.618011 332.630219,269.650208 333.241669,269.188416 
	C334.931000,267.191193 336.644287,265.213654 338.306061,263.193756 
	C356.543396,241.025726 354.383698,211.364655 335.816040,190.273224 
	C324.026428,176.881134 308.541046,172.110001 291.498199,172.110580 
	C278.128754,172.111038 266.084961,177.025787 256.327026,186.282913 
	C245.696762,196.367630 235.525528,206.936890 225.180496,217.321152 
	C221.993073,220.520676 222.017578,227.474075 225.144241,230.638580 
	C229.513748,235.060959 234.863968,235.421448 239.079346,231.425751 
	C247.019241,223.899643 254.872345,216.281937 262.809601,208.752991 
	C263.975800,207.646774 265.405426,206.818329 266.683380,205.853729 
	C266.683380,205.853729 266.706848,205.839066 266.896484,206.340500 
	C267.173706,206.540237 267.450958,206.739975 267.970947,207.502853 
	C268.303040,207.714386 268.635132,207.925919 268.965759,208.038879 
	C268.965759,208.038879 268.867188,208.040878 269.014221,208.585480 
	C269.328400,208.767990 269.642609,208.950500 269.957092,209.042999 
	C269.957092,209.042999 269.867065,209.043320 270.014893,209.586945 
	C270.328857,209.768967 270.642792,209.950989 270.957062,210.043030 
	C270.957062,210.043030 270.867065,210.043365 271.014832,210.587021 
	C271.328796,210.769028 271.642761,210.951019 271.957001,211.043076 
	C271.957001,211.043076 271.867065,211.043427 272.014801,211.587067 
	C272.328766,211.769058 272.642731,211.951035 272.956970,212.043106 
	C272.956970,212.043106 272.867065,212.043442 273.014801,212.587082 
	C273.328766,212.769058 273.642731,212.951035 273.956970,213.043106 
	C273.956970,213.043106 273.867065,213.043442 274.014801,213.587067 
	C274.328766,213.769043 274.642731,213.951019 274.956970,214.043106 
	C274.956970,214.043106 274.867065,214.043442 275.014801,214.587082 
	C275.328766,214.769058 275.642731,214.951035 275.956970,215.043106 
	C275.956970,215.043106 275.867065,215.043442 276.014801,215.587082 
	C276.328766,215.769058 276.642731,215.951035 276.956970,216.043106 
	C276.956970,216.043106 276.867065,216.043442 277.014801,216.587082 
	C277.328766,216.769058 277.642731,216.951035 277.956970,217.043106 
	C277.956970,217.043106 277.867065,217.043442 278.014801,217.587097 
	C278.328766,217.769073 278.642731,217.951050 278.956970,218.043106 
	C278.956970,218.043106 278.867065,218.043442 279.014801,218.587082 
	C279.328766,218.769058 279.642731,218.951035 279.956970,219.043106 
	C279.956970,219.043106 279.867065,219.043442 280.014801,219.587082 
	C280.328766,219.769058 280.642731,219.951035 280.956970,220.043106 
	C280.956970,220.043106 280.867065,220.043442 281.014801,220.587082 
	C281.328766,220.769058 281.642731,220.951035 281.956970,221.043106 
	C281.956970,221.043106 281.867065,221.043442 282.014801,221.587082 
	C282.328766,221.769058 282.642731,221.951035 282.956970,222.043106 
	C282.956970,222.043106 282.867065,222.043442 283.014801,222.587082 
	C283.328766,222.769058 283.642731,222.951035 283.956970,223.043106 
	C283.956970,223.043106 283.867065,223.043442 284.014801,223.587082 
	C284.328766,223.769058 284.642731,223.951035 284.956970,224.043106 
	C284.956970,224.043106 284.867065,224.043442 285.014801,224.587082 
	C285.328766,224.769058 285.642731,224.951035 285.956970,225.043106 
	C285.956970,225.043106 285.867065,225.043442 286.014801,225.587067 
	C286.328766,225.769043 286.642731,225.951019 286.956970,226.043106 
	C286.956970,226.043106 286.867065,226.043442 287.014801,226.587082 
	C287.328766,226.769058 287.642731,226.951035 287.956970,227.043106 
	C287.956970,227.043106 287.867065,227.043442 288.014801,227.587082 
	C288.328766,227.769058 288.642731,227.951035 288.956970,228.043106 
	C288.956970,228.043106 288.867065,228.043442 289.014801,228.587067 
	C289.328766,228.769043 289.642731,228.951019 289.956970,229.043106 
M261.956360,299.043671 
	C261.956360,299.043671 261.867157,299.044006 262.014893,299.587250 
	C262.328644,299.769135 262.642395,299.951019 262.956390,300.043671 
	C262.956390,300.043671 262.867157,300.044006 263.014862,300.587250 
	C263.328613,300.769135 263.642365,300.951019 263.956390,301.043640 
	C263.956390,301.043640 263.867157,301.044006 264.014862,301.587250 
	C264.328613,301.769135 264.642365,301.951019 264.956390,302.043640 
	C264.956390,302.043640 264.867157,302.044006 265.014862,302.587250 
	C265.328613,302.769135 265.642365,302.951019 265.956390,303.043640 
	C265.956390,303.043640 265.867157,303.044006 266.014862,303.587250 
	C266.328613,303.769135 266.642365,303.951019 266.956390,304.043640 
	C266.956390,304.043640 266.867157,304.044006 267.014862,304.587250 
	C267.328613,304.769135 267.642365,304.951019 267.956390,305.043640 
	C267.956390,305.043640 267.867157,305.044006 268.014862,305.587250 
	C268.328613,305.769135 268.642365,305.951019 268.956390,306.043640 
	C268.956390,306.043640 268.867157,306.044006 269.014862,306.587250 
	C269.328613,306.769135 269.642365,306.951019 269.956390,307.043640 
	C269.956390,307.043640 269.867157,307.044006 270.014862,307.587250 
	C270.328613,307.769135 270.642365,307.951019 270.956390,308.043640 
	C270.956390,308.043640 270.867157,308.044006 271.014862,308.587250 
	C271.328613,308.769135 271.642365,308.951019 271.956390,309.043640 
	C271.956390,309.043640 271.867157,309.044006 272.014862,309.587250 
	C272.328613,309.769135 272.642365,309.951019 272.956390,310.043640 
	C272.956390,310.043640 272.867157,310.044006 273.014862,310.587250 
	C273.328613,310.769135 273.642365,310.951019 273.956390,311.043640 
	C273.956390,311.043640 273.867157,311.044006 274.014862,311.587280 
	C274.328583,311.769165 274.642334,311.951050 274.956390,312.043732 
	C274.956390,312.043732 274.867157,312.044037 275.014832,312.587280 
	C275.328583,312.769165 275.642334,312.951050 275.956360,313.043701 
	C275.956360,313.043701 275.867157,313.044037 276.014832,313.587311 
	C276.328583,313.769196 276.642334,313.951050 276.956573,314.043060 
	C276.956573,314.043060 276.866699,314.043182 277.009796,314.579773 
	C277.317444,314.761383 277.625092,314.942993 277.986877,315.028839 
	C277.986877,315.028839 277.908905,315.106354 278.121002,315.727753 
	C278.752747,315.855377 279.384460,315.983002 280.103424,315.937653 
	C280.103424,315.937653 279.931000,315.849396 280.010223,316.308289 
	C280.133453,316.636139 280.369812,316.809967 281.559052,316.988892 
	C285.645050,317.576782 289.140991,315.898956 290.655457,312.458160 
	C292.230072,308.880707 290.264252,305.606079 287.412506,302.811676 
	C277.060730,292.667999 266.917786,282.311401 256.583557,272.149536 
	C254.309937,269.913849 252.707275,267.478302 255.167618,264.972321 
	C257.819397,262.271332 260.078033,264.608093 262.159943,266.638947 
	C272.854767,277.071411 283.744171,287.308990 294.265015,297.912933 
	C298.289124,301.968872 301.947754,301.331177 305.258759,298.235199 
	C308.238739,295.448700 307.781311,290.253510 304.437805,286.904663 
	C294.432831,276.883759 284.364014,266.925598 274.453644,256.812073 
	C272.532806,254.851868 268.381927,252.859283 271.295166,249.474991 
	C274.508118,245.742447 277.410248,248.774551 279.914825,251.379929 
	C282.454437,254.021729 285.074219,256.586609 287.664551,259.179504 
	C295.082123,266.604462 302.453033,274.076996 309.943298,281.427948 
	C313.562500,284.979797 318.593597,284.969757 321.819275,281.677643 
	C325.069061,278.360931 324.759094,274.403839 320.932617,270.394623 
	C320.587830,270.033356 320.233398,269.681122 319.876617,269.331635 
	C302.779053,252.585007 285.628479,235.891800 268.637939,219.037247 
	C266.045105,216.465149 264.544739,216.843536 262.175720,219.202377 
	C255.957001,225.394424 249.859756,231.815857 242.955154,237.166504 
	C239.485214,239.855499 234.192871,242.019012 230.027267,241.575836 
	C222.966934,240.824661 217.397186,236.180725 215.485962,228.845032 
	C213.724701,222.084869 216.215332,216.328918 221.085663,211.482285 
	C229.417465,203.191025 237.702103,194.852341 246.015320,186.524796 
	C221.727081,164.340958 183.986542,168.156860 163.914474,192.767792 
	C146.870300,213.666138 148.341949,251.030426 167.670273,265.547089 
	C171.508804,262.133453 174.948349,258.089081 179.271439,255.547745 
	C182.617889,253.580521 187.097824,252.628021 191.024628,252.754410 
	C198.861328,253.006592 201.569870,259.316528 204.006744,265.590210 
	C204.505905,266.875275 205.601501,268.743195 206.620987,268.881958 
	C214.366318,269.936462 218.329941,274.555847 220.090073,281.806458 
	C220.386810,283.028809 221.793503,284.703125 222.904724,284.892395 
	C231.915054,286.426941 235.410095,292.834351 237.449844,300.673279 
	C248.369186,302.200348 254.196442,310.454895 252.922867,319.184814 
	C252.210526,324.067780 255.600143,326.264801 258.491425,328.878693 
	C259.198273,329.517700 260.189270,329.837585 260.916473,330.459808 
	C264.798462,333.781494 269.651489,333.944733 272.741425,330.799347 
	C275.472900,328.018860 274.834381,323.334991 271.205811,319.700500 
	C259.788696,308.264618 248.420471,296.778931 236.896439,285.451752 
	C234.660721,283.254242 234.184448,280.736908 236.236328,279.121826 
	C237.371918,278.227936 240.874405,278.893524 242.294952,280.075775 
	C246.882690,283.893921 250.999954,288.277405 255.817825,292.633118 
	C255.814407,292.448822 255.810989,292.264496 255.954849,292.052734 
	C255.954849,292.052734 255.927246,291.905457 255.337784,292.264893 
	C255.805664,292.772064 256.273560,293.279236 256.948914,294.398773 
	C257.885071,295.251495 258.821198,296.104248 259.984039,297.515594 
	C260.311676,297.722717 260.639343,297.929810 260.965881,298.038544 
	C260.965881,298.038544 260.867523,298.040131 261.013763,298.584961 
	C261.327850,298.767609 261.641968,298.950226 261.956360,299.043671 
M231.318069,331.001740 
	C237.798676,329.378387 242.030060,324.811859 244.883255,319.299438 
	C247.322433,314.586914 243.085159,309.069000 237.666611,308.987152 
	C232.101013,308.903015 223.240356,317.209137 222.962051,322.771362 
	C222.724396,327.521057 225.497025,330.547699 231.318069,331.001740 
M206.916733,305.313202 
	C204.944962,309.709229 208.050903,312.424530 210.922058,314.031891 
	C212.854462,315.113739 216.663345,314.849426 218.547073,313.578369 
	C222.041580,311.220398 225.386566,308.070679 227.526215,304.492645 
	C228.773041,302.407654 228.374100,298.461182 227.225494,296.067200 
	C226.071930,293.662903 224.046494,291.245728 219.740051,292.755829 
	C213.510498,294.940277 209.821762,299.105865 206.916733,305.313202 
M203.406219,296.076691 
	C206.102371,293.392426 209.245026,291.006805 211.318634,287.906189 
	C212.468262,286.187164 212.718811,282.796997 211.766907,281.022522 
	C210.662582,278.963867 209.574417,276.377411 205.370087,276.523712 
	C198.902603,276.748840 196.445709,281.494537 192.731339,284.870392 
	C189.717072,287.609924 188.265182,291.248383 191.357239,294.798889 
	C196.285965,300.458405 199.294373,300.081421 203.406219,296.076691 
M181.450821,282.850159 
	C186.168365,278.846313 191.341919,275.253906 195.450317,270.700439 
	C198.408997,267.421204 194.243713,260.561523 189.717896,259.948212 
	C183.446091,259.098267 180.695816,263.963715 177.125336,267.419037 
	C170.938034,273.406799 172.610748,279.925812 181.450821,282.850159 
z"/>
<path fill="#F63E3E" opacity="1.000000" stroke="none" 
	d="
M259.757355,296.956970 
	C258.821198,296.104248 257.885071,295.251495 256.439270,294.125244 
	C255.928802,293.202942 255.928024,292.554199 255.927246,291.905457 
	C255.927246,291.905457 255.954849,292.052734 256.046478,292.148865 
	C255.858261,292.311005 255.578400,292.377014 255.298538,292.442993 
	C250.999954,288.277405 246.882690,283.893921 242.294952,280.075775 
	C240.874405,278.893524 237.371918,278.227936 236.236328,279.121826 
	C234.184448,280.736908 234.660721,283.254242 236.896439,285.451752 
	C248.420471,296.778931 259.788696,308.264618 271.205811,319.700500 
	C274.834381,323.334991 275.472900,328.018860 272.741425,330.799347 
	C269.651489,333.944733 264.798462,333.781494 260.916473,330.459808 
	C260.189270,329.837585 259.198273,329.517700 258.491425,328.878693 
	C255.600143,326.264801 252.210526,324.067780 252.922867,319.184814 
	C254.196442,310.454895 248.369186,302.200348 237.450073,300.673065 
	C235.410095,292.834351 231.915054,286.426941 222.904724,284.892395 
	C221.793503,284.703125 220.386810,283.028809 220.090073,281.806458 
	C218.329941,274.555847 214.366318,269.936462 206.620987,268.881958 
	C205.601501,268.743195 204.505905,266.875275 204.006744,265.590210 
	C201.569870,259.316528 198.861328,253.006592 191.024628,252.754410 
	C187.097824,252.628021 182.617889,253.580521 179.271439,255.547745 
	C174.948349,258.089081 171.508804,262.133453 167.670273,265.547089 
	C148.341949,251.030426 146.870300,213.666138 163.914474,192.767792 
	C183.986542,168.156860 221.727081,164.340958 246.015320,186.524796 
	C237.702103,194.852341 229.417465,203.191025 221.085663,211.482285 
	C216.215332,216.328918 213.724701,222.084869 215.485962,228.845032 
	C217.397186,236.180725 222.966934,240.824661 230.027267,241.575836 
	C234.192871,242.019012 239.485214,239.855499 242.955154,237.166504 
	C249.859756,231.815857 255.957001,225.394424 262.175720,219.202377 
	C264.544739,216.843536 266.045105,216.465149 268.637939,219.037247 
	C285.628479,235.891800 302.779053,252.585007 319.876617,269.331635 
	C320.233398,269.681122 320.587830,270.033356 320.932617,270.394623 
	C324.759094,274.403839 325.069061,278.360931 321.819275,281.677643 
	C318.593597,284.969757 313.562500,284.979797 309.943298,281.427948 
	C302.453033,274.076996 295.082123,266.604462 287.664551,259.179504 
	C285.074219,256.586609 282.454437,254.021729 279.914825,251.379929 
	C277.410248,248.774551 274.508118,245.742447 271.295166,249.474991 
	C268.381927,252.859283 272.532806,254.851868 274.453644,256.812073 
	C284.364014,266.925598 294.432831,276.883759 304.437805,286.904663 
	C307.781311,290.253510 308.238739,295.448700 305.258759,298.235199 
	C301.947754,301.331177 298.289124,301.968872 294.265015,297.912933 
	C283.744171,287.308990 272.854767,277.071411 262.159943,266.638947 
	C260.078033,264.608093 257.819397,262.271332 255.167618,264.972321 
	C252.707275,267.478302 254.309937,269.913849 256.583557,272.149536 
	C266.917786,282.311401 277.060730,292.667999 287.412506,302.811676 
	C290.264252,305.606079 292.230072,308.880707 290.655457,312.458160 
	C289.140991,315.898956 285.645050,317.576782 281.010925,316.731262 
	C280.100037,316.424469 279.922760,316.216370 279.931000,315.849396 
	C279.931000,315.849396 280.103424,315.937653 279.977539,315.635193 
	C279.204071,315.257294 278.556488,315.181824 277.908905,315.106354 
	C277.908905,315.106354 277.986877,315.028839 278.104614,314.709900 
	C277.770477,314.275024 277.318573,314.159088 276.866699,314.043182 
	C276.866699,314.043182 276.956573,314.043060 277.043945,313.721741 
	C276.709930,313.281647 276.288544,313.162842 275.867157,313.044037 
	C275.867157,313.044037 275.956360,313.043701 276.043823,312.722076 
	C275.709930,312.281647 275.288544,312.162842 274.867157,312.044037 
	C274.867157,312.044037 274.956390,312.043732 275.043854,311.722107 
	C274.709930,311.281677 274.288544,311.162842 273.867157,311.044006 
	C273.867157,311.044006 273.956390,311.043640 274.043854,310.722076 
	C273.709930,310.281677 273.288544,310.162842 272.867157,310.044006 
	C272.867157,310.044006 272.956390,310.043640 273.043854,309.722046 
	C272.709930,309.281647 272.288544,309.162842 271.867157,309.044006 
	C271.867157,309.044006 271.956390,309.043640 272.043854,308.722046 
	C271.709930,308.281647 271.288544,308.162811 270.867157,308.044006 
	C270.867157,308.044006 270.956390,308.043640 271.043854,307.722046 
	C270.709930,307.281647 270.288544,307.162811 269.867157,307.044006 
	C269.867157,307.044006 269.956390,307.043640 270.043854,306.722046 
	C269.709930,306.281647 269.288544,306.162842 268.867157,306.044006 
	C268.867157,306.044006 268.956390,306.043640 269.043854,305.722046 
	C268.709930,305.281647 268.288544,305.162842 267.867157,305.044006 
	C267.867157,305.044006 267.956390,305.043640 268.043854,304.722046 
	C267.709930,304.281647 267.288544,304.162811 266.867157,304.044006 
	C266.867157,304.044006 266.956390,304.043640 267.043854,303.722046 
	C266.709930,303.281647 266.288544,303.162842 265.867157,303.044006 
	C265.867157,303.044006 265.956390,303.043640 266.043854,302.722046 
	C265.709930,302.281677 265.288544,302.162842 264.867157,302.044006 
	C264.867157,302.044006 264.956390,302.043640 265.043854,301.722046 
	C264.709930,301.281647 264.288544,301.162842 263.867157,301.044006 
	C263.867157,301.044006 263.956390,301.043640 264.043823,300.722046 
	C263.709900,300.281677 263.288544,300.162842 262.867157,300.044006 
	C262.867157,300.044006 262.956390,300.043671 263.043823,299.722107 
	C262.709900,299.281677 262.288513,299.162842 261.867157,299.044006 
	C261.867157,299.044006 261.956360,299.043671 262.044006,298.722168 
	C261.710266,298.280487 261.288879,298.160309 260.867523,298.040131 
	C260.867523,298.040131 260.965881,298.038544 261.022644,297.717712 
	C260.638733,297.250275 260.198029,297.103638 259.757355,296.956970 
z"/>
<path fill="#F63C3C" opacity="1.000000" stroke="none" 
	d="
M295.060883,233.421875 
	C295.060883,233.421875 295.069153,233.455063 294.841187,233.134552 
	C294.034637,232.562134 293.456055,232.310242 292.877472,232.058350 
	C292.877472,232.058350 292.954773,232.055695 293.045502,231.726868 
	C292.713165,231.279831 292.290131,231.161636 291.867065,231.043442 
	C291.867065,231.043442 291.956970,231.043121 292.046631,230.720566 
	C291.713196,230.279831 291.290131,230.161636 290.867065,230.043442 
	C290.867065,230.043442 290.956970,230.043121 291.046631,229.720566 
	C290.713196,229.279831 290.290131,229.161636 289.867065,229.043442 
	C289.867065,229.043442 289.956970,229.043106 290.046631,228.720551 
	C289.713196,228.279816 289.290131,228.161636 288.867065,228.043442 
	C288.867065,228.043442 288.956970,228.043106 289.046631,227.720551 
	C288.713196,227.279816 288.290131,227.161636 287.867065,227.043442 
	C287.867065,227.043442 287.956970,227.043106 288.046631,226.720551 
	C287.713196,226.279816 287.290131,226.161636 286.867065,226.043442 
	C286.867065,226.043442 286.956970,226.043106 287.046631,225.720551 
	C286.713196,225.279816 286.290131,225.161636 285.867065,225.043442 
	C285.867065,225.043442 285.956970,225.043106 286.046631,224.720551 
	C285.713196,224.279816 285.290131,224.161621 284.867065,224.043442 
	C284.867065,224.043442 284.956970,224.043106 285.046631,223.720551 
	C284.713196,223.279816 284.290131,223.161621 283.867065,223.043442 
	C283.867065,223.043442 283.956970,223.043106 284.046631,222.720551 
	C283.713196,222.279816 283.290131,222.161621 282.867065,222.043442 
	C282.867065,222.043442 282.956970,222.043106 283.046631,221.720566 
	C282.713196,221.279831 282.290131,221.161636 281.867065,221.043457 
	C281.867065,221.043442 281.956970,221.043106 282.046631,220.720551 
	C281.713196,220.279816 281.290131,220.161621 280.867065,220.043442 
	C280.867065,220.043442 280.956970,220.043106 281.046631,219.720551 
	C280.713196,219.279816 280.290131,219.161621 279.867065,219.043427 
	C279.867065,219.043442 279.956970,219.043106 280.046631,218.720551 
	C279.713196,218.279816 279.290131,218.161621 278.867065,218.043427 
	C278.867065,218.043442 278.956970,218.043106 279.046631,217.720551 
	C278.713196,217.279831 278.290131,217.161636 277.867065,217.043442 
	C277.867065,217.043442 277.956970,217.043106 278.046631,216.720551 
	C277.713196,216.279831 277.290131,216.161636 276.867065,216.043442 
	C276.867065,216.043442 276.956970,216.043106 277.046631,215.720551 
	C276.713196,215.279816 276.290131,215.161621 275.867065,215.043427 
	C275.867065,215.043442 275.956970,215.043106 276.046631,214.720551 
	C275.713196,214.279800 275.290131,214.161621 274.867065,214.043427 
	C274.867065,214.043442 274.956970,214.043106 275.046631,213.720551 
	C274.713196,213.279816 274.290131,213.161636 273.867065,213.043442 
	C273.867065,213.043442 273.956970,213.043106 274.046631,212.720566 
	C273.713196,212.279831 273.290131,212.161652 272.867065,212.043457 
	C272.867065,212.043442 272.956970,212.043106 273.046600,211.720551 
	C272.713165,211.279800 272.290131,211.161606 271.867065,211.043427 
	C271.867065,211.043427 271.957001,211.043076 272.046570,210.720566 
	C271.713135,210.279816 271.290100,210.161591 270.867065,210.043365 
	C270.867065,210.043365 270.957062,210.043030 271.046570,209.720581 
	C270.713074,209.279846 270.290070,209.161575 269.867065,209.043304 
	C269.867065,209.043320 269.957092,209.042999 270.046631,208.720612 
	C269.713165,208.279099 269.290161,208.159988 268.867188,208.040878 
	C268.867188,208.040878 268.965759,208.038879 269.024719,207.705383 
	C268.631866,207.227814 268.180023,207.083771 267.728210,206.939728 
	C267.450958,206.739975 267.173706,206.540237 266.627258,206.068390 
	C266.466248,205.631424 266.574493,205.466568 266.682709,205.301712 
	C266.692871,205.488266 266.703033,205.674805 266.713196,205.861359 
	C265.405426,206.818329 263.975800,207.646774 262.809601,208.752991 
	C254.872345,216.281937 247.019241,223.899643 239.079346,231.425751 
	C234.863968,235.421448 229.513748,235.060959 225.144241,230.638580 
	C222.017578,227.474075 221.993073,220.520676 225.180496,217.321152 
	C235.525528,206.936890 245.696762,196.367630 256.327026,186.282913 
	C266.084961,177.025787 278.128754,172.111038 291.498199,172.110580 
	C308.541046,172.110001 324.026428,176.881134 335.816040,190.273224 
	C354.383698,211.364655 356.543396,241.025726 338.306061,263.193756 
	C336.644287,265.213654 334.931000,267.191193 332.919434,269.376282 
	C332.597198,269.564117 332.779388,269.530670 332.779388,269.530670 
	C332.523712,269.831268 332.268036,270.131836 331.569519,270.665466 
	C331.126709,270.898529 331.313843,271.015778 331.313843,271.015778 
	C329.908051,269.546906 328.502228,268.078033 326.590332,266.350647 
	C326.106781,265.694427 326.129395,265.296722 326.152008,264.899017 
	C326.152008,264.899017 326.178711,265.062164 325.993652,264.742798 
	C325.064331,263.913177 324.320099,263.402954 323.575836,262.892731 
	C322.511261,261.918396 321.446655,260.944092 320.297546,259.293701 
	C319.755219,258.417511 319.297424,258.217377 318.839630,258.017242 
	C318.839630,258.017242 318.967346,258.020844 319.082214,257.690247 
	C318.749664,257.254944 318.302216,257.150269 317.854797,257.045593 
	C317.854797,257.045593 317.955444,257.045074 318.094360,256.700958 
	C317.773651,256.252930 317.314026,256.149048 316.854370,256.045166 
	C316.854370,256.045166 316.955322,256.044800 317.094482,255.700775 
	C316.773895,255.252945 316.314148,255.149124 315.854401,255.045303 
	C315.854401,255.045303 315.955200,255.044937 316.094482,254.700867 
	C315.773987,254.252975 315.314209,254.149185 314.854401,254.045380 
	C314.854401,254.045364 314.955139,254.044998 315.094482,253.700867 
	C314.774048,253.252960 314.314209,253.149170 313.854401,253.045380 
	C313.854401,253.045380 313.955139,253.045013 314.094513,252.700897 
	C313.774048,252.252960 313.314240,252.149155 312.854401,252.045364 
	C312.854401,252.045364 312.955139,252.044998 313.094513,251.700882 
	C312.774048,251.252975 312.314240,251.149170 311.854401,251.045364 
	C311.854401,251.045364 311.955139,251.044998 312.094513,250.700867 
	C311.774048,250.252945 311.314240,250.149155 310.854401,250.045349 
	C310.854401,250.045364 310.955139,250.044998 311.094513,249.700882 
	C310.774048,249.252960 310.314240,249.149155 309.854401,249.045364 
	C309.854401,249.045364 309.955139,249.044998 310.094513,248.700867 
	C309.774048,248.252960 309.314240,248.149155 308.854401,248.045349 
	C308.854401,248.045364 308.955139,248.044998 309.094513,247.700882 
	C308.774048,247.252960 308.314240,247.149170 307.854401,247.045364 
	C307.854401,247.045364 307.955139,247.044998 308.094513,246.700897 
	C307.774048,246.252975 307.314240,246.149170 306.854401,246.045380 
	C306.854401,246.045364 306.955139,246.044998 307.094513,245.700882 
	C306.774048,245.252975 306.314240,245.149170 305.854401,245.045364 
	C305.854401,245.045364 305.955139,245.044998 306.094513,244.700897 
	C305.774048,244.252975 305.314240,244.149185 304.854401,244.045380 
	C304.854401,244.045364 304.955139,244.044998 305.094513,243.700882 
	C304.774048,243.252960 304.314240,243.149155 303.854401,243.045364 
	C303.854401,243.045364 303.955139,243.044998 304.094513,242.700882 
	C303.774048,242.252975 303.314240,242.149170 302.854401,242.045364 
	C302.854401,242.045364 302.955139,242.044998 303.094513,241.700882 
	C302.774048,241.252960 302.314240,241.149170 301.854401,241.045364 
	C301.854401,241.045364 301.955139,241.044998 302.094513,240.700882 
	C301.774048,240.252960 301.314240,240.149155 300.854401,240.045364 
	C300.854401,240.045364 300.955139,240.044998 301.094513,239.700882 
	C300.774048,239.252975 300.314240,239.149170 299.854401,239.045364 
	C299.854401,239.045364 299.955139,239.044998 300.094513,238.700882 
	C299.774048,238.252960 299.314240,238.149170 298.854401,238.045364 
	C298.854401,238.045364 298.955139,238.045013 299.094482,237.700897 
	C298.774048,237.252991 298.314209,237.149170 297.854401,237.045349 
	C297.854401,237.045349 297.955139,237.044998 298.094482,236.700974 
	C297.773987,236.253067 297.314178,236.149170 296.854370,236.045288 
	C296.854370,236.045288 296.955200,236.044968 297.094360,235.701111 
	C296.773804,235.253220 296.314056,235.149170 295.854309,235.045135 
	C295.854309,235.045135 295.942108,235.046890 296.131226,234.723541 
	C295.900513,234.074097 295.480713,233.747986 295.060883,233.421875 
z"/>
<path fill="#F74242" opacity="1.000000" stroke="none" 
	d="
M230.911041,331.002991 
	C225.497025,330.547699 222.724396,327.521057 222.962051,322.771362 
	C223.240356,317.209137 232.101013,308.903015 237.666611,308.987152 
	C243.085159,309.069000 247.322433,314.586914 244.883255,319.299438 
	C242.030060,324.811859 237.798676,329.378387 230.911041,331.002991 
z"/>
<path fill="#F74040" opacity="1.000000" stroke="none" 
	d="
M206.943207,304.932983 
	C209.821762,299.105865 213.510498,294.940277 219.740051,292.755829 
	C224.046494,291.245728 226.071930,293.662903 227.225494,296.067200 
	C228.374100,298.461182 228.773041,302.407654 227.526215,304.492645 
	C225.386566,308.070679 222.041580,311.220398 218.547073,313.578369 
	C216.663345,314.849426 212.854462,315.113739 210.922058,314.031891 
	C208.050903,312.424530 204.944962,309.709229 206.943207,304.932983 
z"/>
<path fill="#F63E3E" opacity="1.000000" stroke="none" 
	d="
M203.162506,296.356567 
	C199.294373,300.081421 196.285965,300.458405 191.357239,294.798889 
	C188.265182,291.248383 189.717072,287.609924 192.731339,284.870392 
	C196.445709,281.494537 198.902603,276.748840 205.370087,276.523712 
	C209.574417,276.377411 210.662582,278.963867 211.766907,281.022522 
	C212.718811,282.796997 212.468262,286.187164 211.318634,287.906189 
	C209.245026,291.006805 206.102371,293.392426 203.162506,296.356567 
z"/>
<path fill="#F74040" opacity="1.000000" stroke="none" 
	d="
M181.145874,282.625153 
	C172.610748,279.925812 170.938034,273.406799 177.125336,267.419037 
	C180.695816,263.963715 183.446091,259.098267 189.717896,259.948212 
	C194.243713,260.561523 198.408997,267.421204 195.450317,270.700439 
	C191.341919,275.253906 186.168365,278.846313 181.145874,282.625153 
z"/>
<path fill="#FDD6D6" opacity="1.000000" stroke="none" 
	d="
M323.811157,263.129456 
	C324.320099,263.402954 325.064331,263.913177 325.912231,264.757050 
	C325.359406,264.515839 324.702972,263.941040 323.811157,263.129456 
z"/>
<path fill="#FCC3C3" opacity="1.000000" stroke="none" 
	d="
M255.632507,292.085175 
	C255.928024,292.554199 255.928802,293.202942 256.335510,293.819031 
	C256.273560,293.279236 255.805664,292.772064 255.632507,292.085175 
z"/>
<path fill="#FCC3C3" opacity="1.000000" stroke="none" 
	d="
M266.698303,205.857544 
	C266.703033,205.674805 266.692871,205.488266 266.682709,205.301712 
	C266.574493,205.466568 266.466248,205.631424 266.532440,205.817657 
	C266.706848,205.839066 266.683380,205.853729 266.698303,205.857544 
z"/>
<path fill="#FCC3C3" opacity="1.000000" stroke="none" 
	d="
M293.003967,232.386963 
	C293.456055,232.310242 294.034637,232.562134 294.824280,233.132416 
	C294.400421,233.205734 293.765442,232.960663 293.003967,232.386963 
z"/>
<path fill="#FCC3C3" opacity="1.000000" stroke="none" 
	d="
M278.014954,315.417053 
	C278.556488,315.181824 279.204071,315.257294 279.933929,315.721680 
	C279.384460,315.983002 278.752747,315.855377 278.014954,315.417053 
z"/>
<path fill="#FDD6D6" opacity="1.000000" stroke="none" 
	d="
M317.939209,257.314758 
	C318.302216,257.150269 318.749664,257.254944 319.080200,257.754089 
	C318.650085,257.960358 318.336823,257.772156 317.939209,257.314758 
z"/>
<path fill="#FCC3C3" opacity="1.000000" stroke="none" 
	d="
M255.558182,292.538055 
	C255.578400,292.377014 255.858261,292.311005 255.972839,292.162598 
	C255.810989,292.264496 255.814407,292.448822 255.558182,292.538055 
z"/>
<path fill="#FDD6D6" opacity="1.000000" stroke="none" 
	d="
M331.297424,270.921692 
	C331.313843,271.015778 331.126709,270.898529 331.088562,271.010529 
	C331.050415,271.122528 331.351044,271.037079 331.351044,271.037079 
	C331.351044,271.037079 331.280975,270.827576 331.297424,270.921692 
z"/>
<path fill="#FDD6D6" opacity="1.000000" stroke="none" 
	d="
M332.773743,269.574341 
	C332.779388,269.530670 332.597198,269.564117 332.613708,269.607178 
	C332.630219,269.650208 332.768066,269.618011 332.773743,269.574341 
z"/>
<path fill="#FDD6D6" opacity="1.000000" stroke="none" 
	d="
M326.135223,265.128906 
	C326.129395,265.296722 326.106781,265.694427 326.463287,265.997131 
	C326.487213,265.872009 326.245911,265.690887 326.135223,265.128906 
z"/>
<path fill="#FDD6D6" opacity="1.000000" stroke="none" 
	d="
M318.957306,258.332611 
	C319.297424,258.217377 319.755219,258.417511 320.173462,259.051208 
	C319.780945,259.205811 319.427979,258.926910 318.957306,258.332611 
z"/>
<path fill="#FDD6D6" opacity="1.000000" stroke="none" 
	d="
M316.937866,256.313416 
	C317.314026,256.149048 317.773651,256.252930 318.094299,256.751282 
	C317.644012,256.957703 317.332703,256.769684 316.937866,256.313416 
z"/>
<path fill="#FDD6D6" opacity="1.000000" stroke="none" 
	d="
M310.937714,250.313660 
	C311.314240,250.149155 311.774048,250.252945 312.094360,250.751251 
	C311.643585,250.957825 311.332306,250.769897 310.937714,250.313660 
z"/>
<path fill="#FDD6D6" opacity="1.000000" stroke="none" 
	d="
M315.937775,255.313599 
	C316.314148,255.149124 316.773895,255.252945 317.094360,255.751251 
	C316.643768,255.957794 316.332458,255.769836 315.937775,255.313599 
z"/>
<path fill="#FDD6D6" opacity="1.000000" stroke="none" 
	d="
M314.937714,254.313675 
	C315.314209,254.149185 315.773987,254.252975 316.094360,254.751266 
	C315.643616,254.957825 315.332336,254.769897 314.937714,254.313675 
z"/>
<path fill="#FDD6D6" opacity="1.000000" stroke="none" 
	d="
M313.937714,253.313690 
	C314.314209,253.149170 314.774048,253.252960 315.094360,253.751251 
	C314.643585,253.957840 314.332306,253.769913 313.937714,253.313690 
z"/>
<path fill="#FDD6D6" opacity="1.000000" stroke="none" 
	d="
M312.937714,252.313675 
	C313.314240,252.149155 313.774048,252.252960 314.094360,252.751251 
	C313.643585,252.957825 313.332306,252.769913 312.937714,252.313675 
z"/>
<path fill="#FDD6D6" opacity="1.000000" stroke="none" 
	d="
M311.937714,251.313675 
	C312.314240,251.149170 312.774048,251.252975 313.094360,251.751251 
	C312.643585,251.957825 312.332306,251.769897 311.937714,251.313675 
z"/>
<path fill="#FCC3C3" opacity="1.000000" stroke="none" 
	d="
M279.970612,316.078857 
	C279.922760,316.216370 280.100037,316.424469 280.591003,316.651703 
	C280.369812,316.809967 280.133453,316.636139 279.970612,316.078857 
z"/>
<path fill="#FCC3C3" opacity="1.000000" stroke="none" 
	d="
M268.941010,306.315613 
	C269.288544,306.162842 269.709930,306.281647 270.043701,306.766693 
	C269.642365,306.951019 269.328613,306.769135 268.941010,306.315613 
z"/>
<path fill="#FCC3C3" opacity="1.000000" stroke="none" 
	d="
M276.938232,314.311462 
	C277.318573,314.159088 277.770477,314.275024 278.077545,314.757751 
	C277.625092,314.942993 277.317444,314.761383 276.938232,314.311462 
z"/>
<path fill="#FCC3C3" opacity="1.000000" stroke="none" 
	d="
M275.940979,313.315674 
	C276.288544,313.162842 276.709930,313.281647 277.043701,313.766693 
	C276.642334,313.951050 276.328583,313.769196 275.940979,313.315674 
z"/>
<path fill="#FCC3C3" opacity="1.000000" stroke="none" 
	d="
M274.940979,312.315674 
	C275.288544,312.162842 275.709930,312.281647 276.043701,312.766663 
	C275.642334,312.951050 275.328583,312.769165 274.940979,312.315674 
z"/>
<path fill="#FCC3C3" opacity="1.000000" stroke="none" 
	d="
M273.941010,311.315643 
	C274.288544,311.162842 274.709930,311.281677 275.043701,311.766724 
	C274.642334,311.951050 274.328583,311.769165 273.941010,311.315643 
z"/>
<path fill="#FCC3C3" opacity="1.000000" stroke="none" 
	d="
M272.941010,310.315643 
	C273.288544,310.162842 273.709930,310.281677 274.043701,310.766724 
	C273.642365,310.951019 273.328613,310.769135 272.941010,310.315643 
z"/>
<path fill="#FCC3C3" opacity="1.000000" stroke="none" 
	d="
M271.941010,309.315613 
	C272.288544,309.162842 272.709930,309.281647 273.043701,309.766693 
	C272.642365,309.951019 272.328613,309.769135 271.941010,309.315613 
z"/>
<path fill="#FCC3C3" opacity="1.000000" stroke="none" 
	d="
M270.941010,308.315613 
	C271.288544,308.162811 271.709930,308.281647 272.043701,308.766693 
	C271.642365,308.951019 271.328613,308.769135 270.941010,308.315613 
z"/>
<path fill="#FCC3C3" opacity="1.000000" stroke="none" 
	d="
M269.941010,307.315613 
	C270.288544,307.162811 270.709930,307.281647 271.043701,307.766663 
	C270.642365,307.951019 270.328613,307.769135 269.941010,307.315613 
z"/>
<path fill="#FCC3C3" opacity="1.000000" stroke="none" 
	d="
M259.870697,297.236298 
	C260.198029,297.103638 260.638733,297.250275 261.023193,297.766907 
	C260.639343,297.929810 260.311676,297.722717 259.870697,297.236298 
z"/>
<path fill="#FCC3C3" opacity="1.000000" stroke="none" 
	d="
M267.941010,305.315613 
	C268.288544,305.162842 268.709930,305.281647 269.043701,305.766693 
	C268.642365,305.951019 268.328613,305.769135 267.941010,305.315613 
z"/>
<path fill="#FCC3C3" opacity="1.000000" stroke="none" 
	d="
M266.941010,304.315613 
	C267.288544,304.162811 267.709930,304.281647 268.043701,304.766693 
	C267.642365,304.951019 267.328613,304.769135 266.941010,304.315613 
z"/>
<path fill="#FCC3C3" opacity="1.000000" stroke="none" 
	d="
M265.941010,303.315613 
	C266.288544,303.162842 266.709930,303.281647 267.043701,303.766693 
	C266.642365,303.951019 266.328613,303.769135 265.941010,303.315613 
z"/>
<path fill="#FCC3C3" opacity="1.000000" stroke="none" 
	d="
M264.941010,302.315613 
	C265.288544,302.162842 265.709930,302.281677 266.043701,302.766693 
	C265.642365,302.951019 265.328613,302.769135 264.941010,302.315613 
z"/>
<path fill="#FCC3C3" opacity="1.000000" stroke="none" 
	d="
M263.941010,301.315613 
	C264.288544,301.162842 264.709930,301.281647 265.043701,301.766693 
	C264.642365,301.951019 264.328613,301.769135 263.941010,301.315613 
z"/>
<path fill="#FCC3C3" opacity="1.000000" stroke="none" 
	d="
M262.941010,300.315613 
	C263.288544,300.162842 263.709900,300.281677 264.043701,300.766693 
	C263.642365,300.951019 263.328613,300.769135 262.941010,300.315613 
z"/>
<path fill="#FCC3C3" opacity="1.000000" stroke="none" 
	d="
M261.941040,299.315613 
	C262.288513,299.162842 262.709900,299.281677 263.043701,299.766724 
	C262.642395,299.951019 262.328644,299.769135 261.941040,299.315613 
z"/>
<path fill="#FCC3C3" opacity="1.000000" stroke="none" 
	d="
M260.940643,298.312561 
	C261.288879,298.160309 261.710266,298.280487 262.043823,298.766785 
	C261.641968,298.950226 261.327850,298.767609 260.940643,298.312561 
z"/>
<path fill="#FCC3C3" opacity="1.000000" stroke="none" 
	d="
M276.940918,216.315262 
	C277.290131,216.161636 277.713196,216.279831 278.046478,216.765503 
	C277.642731,216.951035 277.328766,216.769058 276.940918,216.315262 
z"/>
<path fill="#FCC3C3" opacity="1.000000" stroke="none" 
	d="
M286.940918,226.315262 
	C287.290131,226.161636 287.713196,226.279816 288.046478,226.765503 
	C287.642731,226.951035 287.328766,226.769058 286.940918,226.315262 
z"/>
<path fill="#FCC3C3" opacity="1.000000" stroke="none" 
	d="
M285.940918,225.315247 
	C286.290131,225.161636 286.713196,225.279816 287.046478,225.765503 
	C286.642731,225.951019 286.328766,225.769043 285.940918,225.315247 
z"/>
<path fill="#FCC3C3" opacity="1.000000" stroke="none" 
	d="
M284.940918,224.315262 
	C285.290131,224.161621 285.713196,224.279816 286.046478,224.765503 
	C285.642731,224.951035 285.328766,224.769058 284.940918,224.315262 
z"/>
<path fill="#FCC3C3" opacity="1.000000" stroke="none" 
	d="
M283.940918,223.315262 
	C284.290131,223.161621 284.713196,223.279816 285.046478,223.765503 
	C284.642731,223.951035 284.328766,223.769058 283.940918,223.315262 
z"/>
<path fill="#FCC3C3" opacity="1.000000" stroke="none" 
	d="
M282.940918,222.315262 
	C283.290131,222.161621 283.713196,222.279816 284.046478,222.765503 
	C283.642731,222.951035 283.328766,222.769058 282.940918,222.315262 
z"/>
<path fill="#FCC3C3" opacity="1.000000" stroke="none" 
	d="
M281.940918,221.315277 
	C282.290131,221.161636 282.713196,221.279831 283.046478,221.765518 
	C282.642731,221.951035 282.328766,221.769058 281.940918,221.315277 
z"/>
<path fill="#FCC3C3" opacity="1.000000" stroke="none" 
	d="
M280.940918,220.315262 
	C281.290131,220.161621 281.713196,220.279816 282.046478,220.765503 
	C281.642731,220.951035 281.328766,220.769058 280.940918,220.315262 
z"/>
<path fill="#FCC3C3" opacity="1.000000" stroke="none" 
	d="
M279.940918,219.315247 
	C280.290131,219.161621 280.713196,219.279816 281.046478,219.765503 
	C280.642731,219.951035 280.328766,219.769058 279.940918,219.315247 
z"/>
<path fill="#FCC3C3" opacity="1.000000" stroke="none" 
	d="
M278.940918,218.315247 
	C279.290131,218.161621 279.713196,218.279816 280.046478,218.765503 
	C279.642731,218.951035 279.328766,218.769058 278.940918,218.315247 
z"/>
<path fill="#FCC3C3" opacity="1.000000" stroke="none" 
	d="
M277.940918,217.315277 
	C278.290131,217.161636 278.713196,217.279831 279.046478,217.765518 
	C278.642731,217.951050 278.328766,217.769073 277.940918,217.315277 
z"/>
<path fill="#FCC3C3" opacity="1.000000" stroke="none" 
	d="
M287.940918,227.315262 
	C288.290131,227.161636 288.713196,227.279816 289.046478,227.765503 
	C288.642731,227.951035 288.328766,227.769058 287.940918,227.315262 
z"/>
<path fill="#FCC3C3" opacity="1.000000" stroke="none" 
	d="
M275.940918,215.315247 
	C276.290131,215.161621 276.713196,215.279816 277.046478,215.765503 
	C276.642731,215.951035 276.328766,215.769058 275.940918,215.315247 
z"/>
<path fill="#FCC3C3" opacity="1.000000" stroke="none" 
	d="
M274.940918,214.315247 
	C275.290131,214.161621 275.713196,214.279800 276.046478,214.765503 
	C275.642731,214.951035 275.328766,214.769058 274.940918,214.315247 
z"/>
<path fill="#FCC3C3" opacity="1.000000" stroke="none" 
	d="
M273.940918,213.315247 
	C274.290131,213.161636 274.713196,213.279816 275.046478,213.765503 
	C274.642731,213.951019 274.328766,213.769043 273.940918,213.315247 
z"/>
<path fill="#FCC3C3" opacity="1.000000" stroke="none" 
	d="
M272.940918,212.315277 
	C273.290131,212.161652 273.713196,212.279831 274.046478,212.765518 
	C273.642731,212.951035 273.328766,212.769058 272.940918,212.315277 
z"/>
<path fill="#FCC3C3" opacity="1.000000" stroke="none" 
	d="
M271.940918,211.315247 
	C272.290131,211.161606 272.713165,211.279800 273.046448,211.765503 
	C272.642731,211.951035 272.328766,211.769058 271.940918,211.315247 
z"/>
<path fill="#FCC3C3" opacity="1.000000" stroke="none" 
	d="
M270.940948,210.315186 
	C271.290100,210.161591 271.713135,210.279816 272.046448,210.765533 
	C271.642761,210.951019 271.328796,210.769028 270.940948,210.315186 
z"/>
<path fill="#FCC3C3" opacity="1.000000" stroke="none" 
	d="
M269.940979,209.315125 
	C270.290070,209.161575 270.713074,209.279846 271.046417,209.765564 
	C270.642792,209.950989 270.328857,209.768967 269.940979,209.315125 
z"/>
<path fill="#FCC3C3" opacity="1.000000" stroke="none" 
	d="
M268.940704,208.313171 
	C269.290161,208.159988 269.713165,208.279099 270.046448,208.765610 
	C269.642609,208.950500 269.328400,208.767990 268.940704,208.313171 
z"/>
<path fill="#FCC3C3" opacity="1.000000" stroke="none" 
	d="
M267.849579,207.221283 
	C268.180023,207.083771 268.631866,207.227814 269.025452,207.754669 
	C268.635132,207.925919 268.303040,207.714386 267.849579,207.221283 
z"/>
<path fill="#FDD6D6" opacity="1.000000" stroke="none" 
	d="
M299.937714,239.313675 
	C300.314240,239.149170 300.774048,239.252975 301.094360,239.751251 
	C300.643585,239.957825 300.332306,239.769913 299.937714,239.313675 
z"/>
<path fill="#FDD6D6" opacity="1.000000" stroke="none" 
	d="
M308.937714,248.313660 
	C309.314240,248.149155 309.774048,248.252960 310.094360,248.751251 
	C309.643585,248.957825 309.332306,248.769913 308.937714,248.313660 
z"/>
<path fill="#FDD6D6" opacity="1.000000" stroke="none" 
	d="
M307.937714,247.313675 
	C308.314240,247.149170 308.774048,247.252960 309.094360,247.751251 
	C308.643585,247.957825 308.332306,247.769897 307.937714,247.313675 
z"/>
<path fill="#FDD6D6" opacity="1.000000" stroke="none" 
	d="
M306.937714,246.313690 
	C307.314240,246.149170 307.774048,246.252975 308.094360,246.751266 
	C307.643585,246.957840 307.332306,246.769913 306.937714,246.313690 
z"/>
<path fill="#FDD6D6" opacity="1.000000" stroke="none" 
	d="
M305.937714,245.313675 
	C306.314240,245.149170 306.774048,245.252975 307.094360,245.751251 
	C306.643585,245.957840 306.332306,245.769913 305.937714,245.313675 
z"/>
<path fill="#FDD6D6" opacity="1.000000" stroke="none" 
	d="
M304.937714,244.313690 
	C305.314240,244.149185 305.774048,244.252975 306.094360,244.751266 
	C305.643585,244.957825 305.332306,244.769913 304.937714,244.313690 
z"/>
<path fill="#FDD6D6" opacity="1.000000" stroke="none" 
	d="
M303.937714,243.313690 
	C304.314240,243.149155 304.774048,243.252960 305.094360,243.751266 
	C304.643585,243.957840 304.332306,243.769913 303.937714,243.313690 
z"/>
<path fill="#FDD6D6" opacity="1.000000" stroke="none" 
	d="
M302.937714,242.313675 
	C303.314240,242.149170 303.774048,242.252975 304.094360,242.751251 
	C303.643585,242.957825 303.332306,242.769897 302.937714,242.313675 
z"/>
<path fill="#FDD6D6" opacity="1.000000" stroke="none" 
	d="
M301.937714,241.313660 
	C302.314240,241.149170 302.774048,241.252960 303.094360,241.751251 
	C302.643585,241.957825 302.332306,241.769897 301.937714,241.313660 
z"/>
<path fill="#FDD6D6" opacity="1.000000" stroke="none" 
	d="
M300.937714,240.313675 
	C301.314240,240.149155 301.774048,240.252960 302.094360,240.751251 
	C301.643585,240.957825 301.332306,240.769913 300.937714,240.313675 
z"/>
<path fill="#FDD6D6" opacity="1.000000" stroke="none" 
	d="
M309.937714,249.313675 
	C310.314240,249.149155 310.774048,249.252960 311.094360,249.751251 
	C310.643585,249.957840 310.332306,249.769913 309.937714,249.313675 
z"/>
<path fill="#FDD6D6" opacity="1.000000" stroke="none" 
	d="
M298.937714,238.313675 
	C299.314240,238.149170 299.774048,238.252960 300.094360,238.751251 
	C299.643585,238.957825 299.332306,238.769897 298.937714,238.313675 
z"/>
<path fill="#FDD6D6" opacity="1.000000" stroke="none" 
	d="
M297.937683,237.313660 
	C298.314209,237.149170 298.774048,237.252991 299.094360,237.751282 
	C298.643585,237.957825 298.332275,237.769897 297.937683,237.313660 
z"/>
<path fill="#FDD6D6" opacity="1.000000" stroke="none" 
	d="
M296.937683,236.313599 
	C297.314178,236.149170 297.773987,236.253067 298.094330,236.751343 
	C297.643555,236.957809 297.332275,236.769867 296.937683,236.313599 
z"/>
<path fill="#FDD6D6" opacity="1.000000" stroke="none" 
	d="
M295.937622,235.313477 
	C296.314056,235.149170 296.773804,235.253220 297.094238,235.751526 
	C296.643585,235.957809 296.332245,235.769836 295.937622,235.313477 
z"/>
<path fill="#FDD6D6" opacity="1.000000" stroke="none" 
	d="
M295.036774,233.788025 
	C295.480713,233.747986 295.900513,234.074097 296.129974,234.767426 
	C295.630646,234.807816 295.321655,234.480988 295.036774,233.788025 
z"/>
<path fill="#FCC3C3" opacity="1.000000" stroke="none" 
	d="
M291.940918,231.315277 
	C292.290131,231.161636 292.713165,231.279831 293.046448,231.765533 
	C292.642731,231.951050 292.328766,231.769073 291.940918,231.315277 
z"/>
<path fill="#FCC3C3" opacity="1.000000" stroke="none" 
	d="
M290.940918,230.315262 
	C291.290131,230.161636 291.713196,230.279831 292.046448,230.765503 
	C291.642700,230.951035 291.328766,230.769058 290.940918,230.315262 
z"/>
<path fill="#FCC3C3" opacity="1.000000" stroke="none" 
	d="
M289.940918,229.315262 
	C290.290131,229.161636 290.713196,229.279831 291.046448,229.765503 
	C290.642700,229.951035 290.328766,229.769058 289.940918,229.315262 
z"/>
<path fill="#FCC3C3" opacity="1.000000" stroke="none" 
	d="
M288.940918,228.315247 
	C289.290131,228.161636 289.713196,228.279816 290.046478,228.765503 
	C289.642731,228.951019 289.328766,228.769043 288.940918,228.315247 
z"/>
</svg>